<svg width="32" height="32" viewBox="0 0 32 32" fill="none" xmlns="http://www.w3.org/2000/svg">
<path d="M8.68962 22.8174C9.21553 23.5872 10.8116 25.2302 12.9887 25.6442M13.1522 29.3332C11.7809 29.1073 2.6665 26.1408 2.6665 16.1233C2.6665 6.75089 10.669 2.6665 16.0009 2.6665C21.3326 2.6665 29.3332 6.75089 29.3332 16.1233C29.3332 26.1408 20.2188 29.1073 18.8474 29.3332C18.8474 29.3332 18.5688 24.7766 18.7314 23.9957C18.894 23.2149 18.3401 21.9582 18.3401 21.9582C19.6348 21.4738 21.6056 20.7794 22.2666 18.9164C22.7796 17.4708 23.1022 15.3716 21.6676 13.3984C21.6676 13.3984 22.0422 10.2106 21.3326 10.0871C20.6232 9.96366 18.5329 11.3491 18.5329 11.3491C17.9241 11.1765 16.5656 10.8462 16.0022 10.9057C15.4388 10.8462 14.0756 11.1765 13.4668 11.3491C13.4668 11.3491 11.3765 9.96366 10.667 10.0871C9.95748 10.2106 10.3321 13.3984 10.3321 13.3984C8.89738 15.3716 9.22005 17.4708 9.73304 18.9164C10.3942 20.7794 12.365 21.4738 13.6596 21.9582C13.6596 21.9582 13.1058 23.2149 13.2683 23.9957C13.4309 24.7766 13.1522 29.3332 13.1522 29.3332Z" stroke="#E5E5E5" stroke-width="1.5" stroke-linecap="round" stroke-linejoin="round"/>
</svg>
