<svg width="32" height="32" viewBox="0 0 32 32" fill="none" xmlns="http://www.w3.org/2000/svg">
<path d="M5.99984 12.6665H5.33317C4.07609 12.6665 3.44756 12.6665 3.05702 13.057C2.6665 13.4476 2.6665 14.0761 2.6665 15.3332V26.6665C2.6665 27.9236 2.6665 28.5521 3.05702 28.9426C3.44756 29.3332 4.07609 29.3332 5.33317 29.3332H5.99984C7.25692 29.3332 7.88545 29.3332 8.27598 28.9426C8.6665 28.5521 8.6665 27.9236 8.6665 26.6665V15.3332C8.6665 14.0761 8.6665 13.4476 8.27598 13.057C7.88545 12.6665 7.25692 12.6665 5.99984 12.6665Z" stroke="#E5E5E5" stroke-width="1.5"/>
<path d="M8.6665 5.6665C8.6665 7.32336 7.32336 8.6665 5.6665 8.6665C4.00965 8.6665 2.6665 7.32336 2.6665 5.6665C2.6665 4.00965 4.00965 2.6665 5.6665 2.6665C7.32336 2.6665 8.6665 4.00965 8.6665 5.6665Z" stroke="#E5E5E5" stroke-width="1.5"/>
<path d="M16.4345 12.6665H15.3332C14.0761 12.6665 13.4476 12.6665 13.057 13.057C12.6665 13.4476 12.6665 14.0761 12.6665 15.3332V26.6665C12.6665 27.9236 12.6665 28.5521 13.057 28.9426C13.4476 29.3332 14.0761 29.3332 15.3332 29.3332H15.9998C17.2569 29.3332 17.8854 29.3332 18.276 28.9426C18.6665 28.5521 18.6665 27.9236 18.6665 26.6665L18.6666 22C18.6666 19.7909 19.3706 18 21.4504 18C22.4901 18 23.3332 18.8954 23.3332 20V26C23.3332 27.257 23.3332 27.8856 23.7237 28.2761C24.1141 28.6666 24.7428 28.6666 25.9998 28.6666H26.6648C27.9216 28.6666 28.55 28.6666 28.9405 28.2762C29.331 27.8858 29.3312 27.2574 29.3314 26.0006L29.3333 18.6668C29.3333 15.3532 26.1817 12.6668 23.0622 12.6668C21.2864 12.6668 19.7021 13.5373 18.6666 14.8985C18.6665 14.0584 18.6665 13.6384 18.4841 13.3265C18.3685 13.129 18.204 12.9645 18.0065 12.849C17.6946 12.6665 17.2746 12.6665 16.4345 12.6665Z" stroke="#E5E5E5" stroke-width="1.5" stroke-linejoin="round"/>
</svg>
