<svg width="32" height="32" viewBox="0 0 32 32" fill="none" xmlns="http://www.w3.org/2000/svg">
<path d="M2.6665 8L11.8839 13.2226C15.282 15.148 16.7177 15.148 20.1158 13.2226L29.3332 8" stroke="#E5E5E5" stroke-width="1.5" stroke-linejoin="round"/>
<path d="M2.68753 17.9673C2.77469 22.0548 2.81828 24.0984 4.32645 25.6124C5.83461 27.1262 7.93361 27.1789 12.1316 27.2844C14.7189 27.3494 17.2808 27.3494 19.8681 27.2844C24.0661 27.1789 26.165 27.1262 27.6733 25.6124C29.1814 24.0984 29.225 22.0548 29.3121 17.9673C29.3402 16.653 29.3402 15.3466 29.3121 14.0324C29.225 9.94498 29.1814 7.90129 27.6733 6.38739C26.165 4.87348 24.0661 4.82075 19.8681 4.71527C17.2808 4.65025 14.7189 4.65025 12.1316 4.71525C7.93361 4.82072 5.83461 4.87345 4.32644 6.38737C2.81826 7.90128 2.77469 9.94497 2.68752 14.0324C2.65949 15.3466 2.6595 16.653 2.68753 17.9673Z" stroke="#E5E5E5" stroke-width="1.5" stroke-linejoin="round"/>
</svg>
