<svg width="32" height="32" viewBox="0 0 32 32" fill="none" xmlns="http://www.w3.org/2000/svg">
<path d="M24.9451 4.66041C22.422 3.40505 19.3345 2.66663 16 2.66663C12.6655 2.66663 9.578 3.40505 7.05488 4.66041C5.81757 5.27604 5.19892 5.58385 4.59947 6.55167C4 7.51949 4 8.4566 4 10.3308V14.9828C4 22.5606 10.0565 26.7738 13.564 28.5784C14.5423 29.0817 15.0313 29.3333 16 29.3333C16.9687 29.3333 17.4577 29.0817 18.4359 28.5784C21.9435 26.7738 28 22.5606 28 14.9828V10.3308C28 8.45661 28 7.51951 27.4005 6.55167C26.8011 5.58384 26.1824 5.27604 24.9451 4.66041Z" stroke="#FAFAFA" stroke-width="1.5" stroke-linecap="round" stroke-linejoin="round"/>
</svg>
