<svg width="32" height="32" viewBox="0 0 32 32" fill="none" xmlns="http://www.w3.org/2000/svg">
<path d="M11.524 4.19408L9.25088 5.24479C5.75029 6.86288 4 7.67192 4 8.99996C4 10.328 5.75029 11.137 9.25089 12.7551L11.524 13.8058C13.7269 14.8241 14.8285 15.3333 16 15.3333C17.1715 15.3333 18.2731 14.8241 20.476 13.8058L22.7491 12.7551C26.2497 11.137 28 10.328 28 8.99996C28 7.67192 26.2497 6.86288 22.7491 5.24479L20.476 4.19408C18.2731 3.17577 17.1715 2.66663 16 2.66663C14.8285 2.66663 13.7269 3.17577 11.524 4.19408Z" stroke="#FAFAFA" stroke-width="2" stroke-linecap="round" stroke-linejoin="round"/>
<path d="M27.7173 14.7963C27.9057 15.0612 28 15.3375 28 15.6412C28 16.9503 26.2497 17.7479 22.7491 19.3429L20.476 20.3787C18.2731 21.3824 17.1715 21.8844 16 21.8844C14.8285 21.8844 13.7269 21.3824 11.524 20.3787L9.25089 19.3429C5.75029 17.7479 4 16.9503 4 15.6412C4 15.3375 4.09423 15.0612 4.28267 14.7963" stroke="#FAFAFA" stroke-width="2" stroke-linecap="round" stroke-linejoin="round"/>
<path d="M27.1689 21.6881C27.7229 22.1294 28 22.5693 28 23.0901C28 24.3993 26.2497 25.1968 22.7491 26.7918L20.476 27.8276C18.2731 28.8314 17.1715 29.3333 16 29.3333C14.8285 29.3333 13.7269 28.8314 11.524 27.8276L9.25089 26.7918C5.75029 25.1968 4 24.3993 4 23.0901C4 22.5693 4.27704 22.1294 4.83112 21.6881" stroke="#FAFAFA" stroke-width="2" stroke-linecap="round" stroke-linejoin="round"/>
</svg>
